<svg id="Layer_1" data-name="Layer 1" xmlns="http://www.w3.org/2000/svg" xmlns:xlink="http://www.w3.org/1999/xlink" viewBox="0 0 498.85 158.27"><defs><style>.cls-1{fill:none;}.cls-2{clip-path:url(#clip-path);}.cls-3{fill:#fff;}.cls-4{fill:#dc2430;}.cls-5{fill:url(#linear-gradient);}</style><clipPath id="clip-path" transform="translate(62.15 -66.85)"><path class="cls-1" d="M9.66,127.58h7.19v61.86H9.66Zm63.59,47.94-3.73-6.09L39.41,127.58H33.68v61.86h7.19V140.86L43.23,145,74.7,189.44h5.82V127.58H73.25Zm63.77-29q-.09,9.64-6.73,14.6t-17,5h-8.73v23.38H97.35V127.58h16.83q10.46,0,16.65,4.59T137,146.5Zm-7.37.27q0-7.18-3.91-10.14t-11.46-3h-9.73V160h9q7.18,0,11.55-3.23T129.65,146.77Zm47.58,15L193,189.44h-7.92l-14.19-25.74a58.36,58.36,0,0,1-6.46.36h-8.73v25.38h-7.19V127.58h16.83q10.46,0,16.65,4.37t6.19,13.65a17.23,17.23,0,0,1-3,10.05A18.1,18.1,0,0,1,177.23,161.78Zm-1-6.5q4.41-2.87,4.5-9.42,0-6.82-4-9.51t-11.37-2.68h-9.73v24.47h9Q171.86,158.15,176.27,155.28Zm147.32-27.7L306.76,154,287.93,126l-6,3,19.83,29.11-22.2,31.29h7.73l18.28-26.11,16.65,26.11h7.82l-19.56-30.29,20.83-31.57Zm17.1,0v61.86h7.19V127.58Zm-61,33a42,42,0,0,1-.73,7.66c0,.15-.11.6-.28,1.37a39.74,39.74,0,0,1-2.73,8c-4.4,10.35-14.09,26.25-35.28,43.28a2.89,2.89,0,0,1-3.63,0c-21.21-17-30.88-32.93-35.28-43.28a40.18,40.18,0,0,1-2.73-8c-.17-.77-.26-1.22-.28-1.37a40.16,40.16,0,0,1-.73-7.66,40.83,40.83,0,0,1,81.65,0Zm-5.8,0a35,35,0,1,0-69.45,6.66c0,.06,0,.11,0,.15s.06.43.19.92v0a36.14,36.14,0,0,0,2.37,7s0,.06,0,.09c4,9.45,12.74,23.88,31.78,39.61,19-15.73,27.79-30.16,31.78-39.61,0,0,0-.06,0-.09a33.88,33.88,0,0,0,2.37-7v0c.11-.49.17-.81.19-.92s0-.09,0-.13A34.74,34.74,0,0,0,273.94,160.53Zm-9.13.47a25.91,25.91,0,1,1-25.91-25.91A25.95,25.95,0,0,1,264.8,161ZM259,161a20.15,20.15,0,1,0-20.15,20.15A20.18,20.18,0,0,0,259,161Z"/></clipPath><linearGradient id="linear-gradient" x1="18.44" y1="168.55" x2="356.67" y2="168.55" gradientTransform="translate(60.15 -66.85)" gradientUnits="userSpaceOnUse"><stop offset="0" stop-color="#dc2430"/><stop offset="1" stop-color="#7b4397"/></linearGradient></defs><title>inproxi 2</title><g class="cls-2"><rect x="-100.93" y="144.29" width="192.96" height="1.26" transform="translate(-56.32 -11.49) rotate(-53.61)"/><rect x="-97.89" y="144.31" width="192.96" height="1.26" transform="translate(-55.1 -9.03) rotate(-53.61)"/><rect x="-94.84" y="144.33" width="192.96" height="1.26" transform="translate(-53.88 -6.58) rotate(-53.61)"/><rect x="-91.8" y="144.34" width="192.96" height="1.26" transform="matrix(0.59, -0.81, 0.81, 0.59, -52.65, -4.12)"/><rect x="-88.76" y="144.36" width="192.96" height="1.26" transform="translate(-51.43 -1.66) rotate(-53.61)"/><rect x="-85.71" y="144.38" width="192.96" height="1.26" transform="translate(-50.2 0.79) rotate(-53.61)"/><rect x="-82.67" y="144.39" width="192.96" height="1.26" transform="translate(-48.98 3.25) rotate(-53.61)"/><rect x="-79.63" y="144.41" width="192.96" height="1.26" transform="translate(-47.75 5.71) rotate(-53.61)"/><rect x="-76.59" y="144.43" width="192.96" height="1.26" transform="translate(-46.53 8.16) rotate(-53.61)"/><rect x="-73.54" y="144.45" width="192.96" height="1.26" transform="translate(-45.31 10.62) rotate(-53.61)"/><rect x="-70.5" y="144.46" width="192.96" height="1.26" transform="translate(-44.08 13.08) rotate(-53.61)"/><rect x="-67.46" y="144.48" width="192.96" height="1.26" transform="matrix(0.59, -0.81, 0.81, 0.59, -42.86, 15.53)"/><rect x="-64.41" y="144.5" width="192.96" height="1.26" transform="translate(-41.63 17.99) rotate(-53.61)"/><rect x="-61.37" y="144.51" width="192.96" height="1.26" transform="translate(-40.41 20.45) rotate(-53.61)"/><rect x="-58.33" y="144.53" width="192.96" height="1.26" transform="translate(-39.18 22.9) rotate(-53.61)"/><rect x="-55.28" y="144.55" width="192.96" height="1.26" transform="translate(-37.96 25.36) rotate(-53.61)"/><rect x="-52.24" y="144.56" width="192.96" height="1.26" transform="translate(-36.74 27.82) rotate(-53.61)"/><rect x="-49.2" y="144.58" width="192.96" height="1.26" transform="translate(-35.51 30.27) rotate(-53.61)"/><rect x="-46.15" y="144.6" width="192.96" height="1.26" transform="matrix(0.59, -0.81, 0.81, 0.59, -34.29, 32.73)"/><rect x="-43.11" y="144.61" width="192.96" height="1.26" transform="translate(-33.06 35.19) rotate(-53.61)"/><rect x="-40.07" y="144.63" width="192.96" height="1.26" transform="matrix(0.59, -0.81, 0.81, 0.59, -31.84, 37.64)"/><rect x="-37.02" y="144.65" width="192.96" height="1.26" transform="translate(-30.62 40.1) rotate(-53.61)"/><rect x="-33.98" y="144.66" width="192.96" height="1.26" transform="translate(-29.39 42.56) rotate(-53.61)"/><rect x="-30.94" y="144.68" width="192.96" height="1.26" transform="matrix(0.59, -0.81, 0.81, 0.59, -28.17, 45.01)"/><rect x="-27.89" y="144.7" width="192.96" height="1.26" transform="translate(-26.94 47.47) rotate(-53.61)"/><rect x="-24.85" y="144.71" width="192.96" height="1.26" transform="translate(-25.72 49.93) rotate(-53.61)"/><rect x="-21.81" y="144.73" width="192.96" height="1.26" transform="translate(-24.49 52.39) rotate(-53.61)"/><rect x="-18.76" y="144.75" width="192.96" height="1.26" transform="translate(-23.27 54.84) rotate(-53.61)"/><rect x="-15.72" y="144.77" width="192.96" height="1.26" transform="translate(-22.05 57.3) rotate(-53.61)"/><rect x="-12.68" y="144.78" width="192.96" height="1.26" transform="translate(-20.82 59.76) rotate(-53.61)"/><rect x="-9.63" y="144.8" width="192.96" height="1.26" transform="translate(-19.6 62.21) rotate(-53.61)"/><rect x="-6.59" y="144.82" width="192.96" height="1.26" transform="matrix(0.59, -0.81, 0.81, 0.59, -18.37, 64.67)"/><rect x="-3.55" y="144.83" width="192.96" height="1.26" transform="translate(-17.15 67.13) rotate(-53.61)"/><rect x="-0.5" y="144.85" width="192.96" height="1.26" transform="translate(-15.92 69.58) rotate(-53.61)"/><rect x="2.54" y="144.87" width="192.96" height="1.26" transform="matrix(0.59, -0.81, 0.81, 0.59, -14.7, 72.04)"/><rect x="5.58" y="144.88" width="192.96" height="1.26" transform="translate(-13.48 74.5) rotate(-53.61)"/><rect x="8.63" y="144.9" width="192.96" height="1.26" transform="translate(-12.25 76.95) rotate(-53.61)"/><rect x="11.67" y="144.92" width="192.96" height="1.26" transform="matrix(0.59, -0.81, 0.81, 0.59, -11.03, 79.41)"/><rect x="14.71" y="144.93" width="192.96" height="1.26" transform="translate(-9.8 81.87) rotate(-53.61)"/><rect x="17.76" y="144.95" width="192.96" height="1.26" transform="translate(-8.58 84.32) rotate(-53.61)"/><rect x="20.8" y="144.97" width="192.96" height="1.26" transform="translate(-7.35 86.78) rotate(-53.61)"/><rect x="23.84" y="144.98" width="192.96" height="1.26" transform="translate(-6.13 89.24) rotate(-53.61)"/><rect x="26.89" y="145" width="192.96" height="1.26" transform="translate(-4.91 91.69) rotate(-53.61)"/><rect x="29.93" y="145.02" width="192.96" height="1.26" transform="translate(-3.68 94.15) rotate(-53.61)"/><rect x="32.97" y="145.03" width="192.96" height="1.26" transform="translate(-2.46 96.61) rotate(-53.61)"/><rect x="36.02" y="145.05" width="192.96" height="1.26" transform="translate(-1.23 99.06) rotate(-53.61)"/><rect x="39.06" y="145.07" width="192.96" height="1.26" transform="translate(-0.01 101.52) rotate(-53.61)"/><rect x="42.1" y="145.08" width="192.96" height="1.26" transform="translate(1.22 103.98) rotate(-53.61)"/><rect x="45.15" y="145.1" width="192.96" height="1.26" transform="translate(2.44 106.43) rotate(-53.61)"/><rect x="48.19" y="145.12" width="192.96" height="1.26" transform="translate(3.66 108.89) rotate(-53.61)"/><rect x="51.23" y="145.14" width="192.96" height="1.26" transform="translate(4.89 111.35) rotate(-53.61)"/><rect x="54.28" y="145.15" width="192.96" height="1.26" transform="translate(6.11 113.8) rotate(-53.61)"/><rect x="57.32" y="145.17" width="192.96" height="1.26" transform="translate(7.34 116.26) rotate(-53.61)"/><rect x="60.36" y="145.19" width="192.96" height="1.26" transform="matrix(0.59, -0.81, 0.81, 0.59, 8.56, 118.72)"/><rect x="63.41" y="145.2" width="192.96" height="1.26" transform="matrix(0.59, -0.81, 0.81, 0.59, 9.79, 121.17)"/><rect x="66.45" y="145.22" width="192.96" height="1.26" transform="translate(11.01 123.63) rotate(-53.61)"/><rect x="69.49" y="145.24" width="192.96" height="1.26" transform="translate(12.23 126.09) rotate(-53.61)"/><rect x="72.53" y="145.25" width="192.96" height="1.26" transform="translate(13.46 128.54) rotate(-53.61)"/><rect x="75.58" y="145.27" width="192.96" height="1.26" transform="matrix(0.59, -0.81, 0.81, 0.59, 14.68, 131)"/><rect x="78.62" y="145.29" width="192.96" height="1.26" transform="translate(15.91 133.46) rotate(-53.61)"/><rect x="81.66" y="145.3" width="192.96" height="1.26" transform="translate(17.13 135.91) rotate(-53.61)"/><rect x="84.71" y="145.32" width="192.96" height="1.26" transform="translate(18.36 138.37) rotate(-53.61)"/><rect x="87.75" y="145.34" width="192.96" height="1.26" transform="translate(19.58 140.83) rotate(-53.61)"/><rect x="90.79" y="145.35" width="192.96" height="1.26" transform="matrix(0.59, -0.81, 0.81, 0.59, 20.8, 143.28)"/><rect x="93.84" y="145.37" width="192.96" height="1.26" transform="matrix(0.59, -0.81, 0.81, 0.59, 22.03, 145.74)"/><rect x="96.88" y="145.39" width="192.96" height="1.26" transform="translate(23.25 148.2) rotate(-53.61)"/><rect x="99.92" y="145.4" width="192.96" height="1.26" transform="translate(24.48 150.65) rotate(-53.61)"/><rect x="102.97" y="145.42" width="192.96" height="1.26" transform="translate(25.7 153.11) rotate(-53.61)"/><rect x="106.01" y="145.44" width="192.96" height="1.26" transform="translate(26.92 155.57) rotate(-53.61)"/><rect x="109.05" y="145.46" width="192.96" height="1.26" transform="matrix(0.59, -0.81, 0.81, 0.59, 28.15, 158.02)"/><rect x="112.1" y="145.47" width="192.96" height="1.26" transform="translate(29.37 160.48) rotate(-53.61)"/><rect x="115.14" y="145.49" width="192.96" height="1.26" transform="translate(30.6 162.94) rotate(-53.61)"/><rect x="118.18" y="145.51" width="192.96" height="1.26" transform="translate(31.82 165.39) rotate(-53.61)"/><rect x="121.23" y="145.52" width="192.96" height="1.26" transform="translate(33.05 167.85) rotate(-53.61)"/><rect x="124.27" y="145.54" width="192.96" height="1.26" transform="translate(34.27 170.31) rotate(-53.61)"/><rect x="127.31" y="145.56" width="192.96" height="1.26" transform="translate(35.49 172.76) rotate(-53.61)"/><rect x="130.36" y="145.57" width="192.96" height="1.26" transform="translate(36.72 175.22) rotate(-53.61)"/><rect x="133.4" y="145.59" width="192.96" height="1.26" transform="translate(37.94 177.68) rotate(-53.61)"/><rect x="136.44" y="145.61" width="192.96" height="1.26" transform="translate(39.17 180.13) rotate(-53.61)"/><rect x="139.49" y="145.62" width="192.96" height="1.26" transform="translate(40.39 182.59) rotate(-53.61)"/><rect x="142.53" y="145.64" width="192.96" height="1.26" transform="translate(41.56 184.9) rotate(-53.58)"/><rect x="145.57" y="145.66" width="192.96" height="1.26" transform="translate(42.78 187.35) rotate(-53.58)"/><rect x="148.62" y="145.67" width="192.96" height="1.26" transform="translate(44 189.81) rotate(-53.58)"/><rect x="151.66" y="145.69" width="192.96" height="1.26" transform="translate(45.22 192.26) rotate(-53.58)"/><rect x="154.7" y="145.71" width="192.96" height="1.26" transform="translate(46.45 194.72) rotate(-53.58)"/><rect x="157.75" y="145.73" width="192.96" height="1.26" transform="translate(47.67 197.17) rotate(-53.58)"/><rect x="160.79" y="145.74" width="192.96" height="1.26" transform="translate(48.89 199.63) rotate(-53.58)"/><rect x="163.83" y="145.76" width="192.96" height="1.26" transform="translate(50.11 202.09) rotate(-53.58)"/><rect x="166.88" y="145.78" width="192.96" height="1.26" transform="translate(51.34 204.54) rotate(-53.58)"/><rect x="169.92" y="145.79" width="192.96" height="1.26" transform="translate(52.56 207) rotate(-53.58)"/><rect x="172.96" y="145.81" width="192.96" height="1.26" transform="translate(53.78 209.45) rotate(-53.58)"/><rect x="176.01" y="145.83" width="192.96" height="1.26" transform="translate(55.01 211.91) rotate(-53.58)"/><rect x="179.05" y="145.84" width="192.96" height="1.26" transform="translate(56.23 214.36) rotate(-53.58)"/><rect x="182.09" y="145.86" width="192.96" height="1.26" transform="translate(57.45 216.82) rotate(-53.58)"/><rect x="185.14" y="145.88" width="192.96" height="1.26" transform="translate(58.67 219.27) rotate(-53.58)"/><rect x="188.18" y="145.89" width="192.96" height="1.26" transform="translate(59.9 221.73) rotate(-53.58)"/><rect x="191.22" y="145.91" width="192.96" height="1.26" transform="translate(61.12 224.19) rotate(-53.58)"/><rect x="194.27" y="145.93" width="192.96" height="1.26" transform="translate(62.34 226.64) rotate(-53.58)"/><rect x="197.31" y="145.94" width="192.96" height="1.26" transform="translate(63.57 229.1) rotate(-53.58)"/><rect x="200.35" y="145.96" width="192.96" height="1.26" transform="translate(64.79 231.55) rotate(-53.58)"/><rect x="203.4" y="145.98" width="192.96" height="1.26" transform="translate(66.01 234.01) rotate(-53.58)"/><rect x="206.44" y="145.99" width="192.96" height="1.26" transform="translate(67.23 236.46) rotate(-53.58)"/><rect x="209.48" y="146.01" width="192.96" height="1.26" transform="translate(68.46 238.92) rotate(-53.58)"/><rect x="212.53" y="146.03" width="192.96" height="1.26" transform="translate(69.68 241.38) rotate(-53.58)"/><rect x="215.57" y="146.04" width="192.96" height="1.26" transform="translate(70.9 243.83) rotate(-53.58)"/><rect x="218.61" y="146.06" width="192.96" height="1.26" transform="translate(72.13 246.29) rotate(-53.58)"/><rect x="221.65" y="146.08" width="192.96" height="1.26" transform="translate(73.35 248.74) rotate(-53.58)"/><rect x="224.7" y="146.1" width="192.96" height="1.26" transform="translate(74.57 251.2) rotate(-53.58)"/><rect x="227.74" y="146.11" width="192.96" height="1.26" transform="translate(75.79 253.65) rotate(-53.58)"/><rect x="230.78" y="146.13" width="192.96" height="1.26" transform="translate(77.02 256.11) rotate(-53.58)"/><rect x="233.83" y="146.15" width="192.96" height="1.26" transform="translate(78.24 258.57) rotate(-53.58)"/><rect x="236.87" y="146.16" width="192.96" height="1.26" transform="translate(79.46 261.02) rotate(-53.58)"/><rect x="239.91" y="146.18" width="192.96" height="1.26" transform="translate(80.69 263.48) rotate(-53.58)"/><rect x="242.96" y="146.2" width="192.96" height="1.26" transform="translate(81.91 265.93) rotate(-53.58)"/><rect x="246" y="146.21" width="192.96" height="1.26" transform="translate(83.13 268.39) rotate(-53.58)"/><rect x="249.04" y="146.23" width="192.96" height="1.26" transform="translate(84.35 270.84) rotate(-53.58)"/><rect x="252.09" y="146.25" width="192.96" height="1.26" transform="translate(85.58 273.3) rotate(-53.58)"/><rect x="255.13" y="146.26" width="192.96" height="1.26" transform="translate(86.8 275.75) rotate(-53.58)"/><rect x="258.17" y="146.28" width="192.96" height="1.26" transform="translate(88.02 278.21) rotate(-53.58)"/><rect x="261.22" y="146.3" width="192.96" height="1.26" transform="translate(89.25 280.67) rotate(-53.58)"/><rect x="264.26" y="146.31" width="192.96" height="1.26" transform="translate(90.47 283.12) rotate(-53.58)"/><rect x="267.3" y="146.33" width="192.96" height="1.26" transform="translate(91.69 285.58) rotate(-53.58)"/><rect x="270.35" y="146.35" width="192.96" height="1.26" transform="translate(92.91 288.03) rotate(-53.58)"/><rect x="273.39" y="146.36" width="192.96" height="1.26" transform="translate(94.14 290.49) rotate(-53.58)"/><rect x="276.43" y="146.38" width="192.96" height="1.26" transform="translate(95.36 292.94) rotate(-53.58)"/><rect x="279.48" y="146.4" width="192.96" height="1.26" transform="translate(96.58 295.4) rotate(-53.58)"/><rect x="282.52" y="146.41" width="192.96" height="1.26" transform="translate(97.81 297.86) rotate(-53.58)"/><rect class="cls-3" x="-100.93" y="144.29" width="192.96" height="1.26" transform="translate(-56.32 -11.49) rotate(-53.61)"/><rect class="cls-3" x="-97.89" y="144.31" width="192.96" height="1.26" transform="translate(-55.1 -9.03) rotate(-53.61)"/><rect class="cls-3" x="-94.84" y="144.33" width="192.96" height="1.26" transform="translate(-53.88 -6.58) rotate(-53.61)"/><rect class="cls-3" x="-91.8" y="144.34" width="192.96" height="1.26" transform="matrix(0.59, -0.81, 0.81, 0.59, -52.65, -4.12)"/><rect class="cls-3" x="-88.76" y="144.36" width="192.96" height="1.26" transform="translate(-51.43 -1.66) rotate(-53.61)"/><rect class="cls-3" x="-85.71" y="144.38" width="192.96" height="1.26" transform="translate(-50.2 0.79) rotate(-53.61)"/><rect class="cls-3" x="-82.67" y="144.39" width="192.96" height="1.26" transform="translate(-48.98 3.25) rotate(-53.61)"/><rect class="cls-3" x="-79.63" y="144.41" width="192.96" height="1.26" transform="translate(-47.75 5.71) rotate(-53.61)"/><rect class="cls-3" x="-76.59" y="144.43" width="192.96" height="1.26" transform="translate(-46.53 8.16) rotate(-53.61)"/><rect class="cls-3" x="-73.54" y="144.45" width="192.96" height="1.26" transform="translate(-45.31 10.62) rotate(-53.61)"/><rect class="cls-3" x="-70.5" y="144.46" width="192.96" height="1.26" transform="translate(-44.08 13.08) rotate(-53.61)"/><rect class="cls-3" x="-67.46" y="144.48" width="192.96" height="1.26" transform="matrix(0.59, -0.81, 0.81, 0.59, -42.86, 15.53)"/><rect class="cls-3" x="-64.41" y="144.5" width="192.96" height="1.26" transform="translate(-41.63 17.99) rotate(-53.61)"/><rect class="cls-3" x="-61.37" y="144.51" width="192.96" height="1.26" transform="translate(-40.41 20.45) rotate(-53.61)"/><rect class="cls-3" x="-58.33" y="144.53" width="192.96" height="1.26" transform="translate(-39.18 22.9) rotate(-53.61)"/><rect class="cls-3" x="-55.28" y="144.55" width="192.96" height="1.26" transform="translate(-37.96 25.36) rotate(-53.61)"/><rect class="cls-3" x="-52.24" y="144.56" width="192.96" height="1.26" transform="translate(-36.74 27.82) rotate(-53.61)"/><rect class="cls-3" x="-49.2" y="144.58" width="192.96" height="1.26" transform="translate(-35.51 30.27) rotate(-53.61)"/><rect class="cls-3" x="-46.15" y="144.6" width="192.96" height="1.26" transform="matrix(0.59, -0.81, 0.81, 0.59, -34.29, 32.73)"/><rect class="cls-3" x="-43.11" y="144.61" width="192.96" height="1.26" transform="translate(-33.06 35.19) rotate(-53.61)"/><rect class="cls-3" x="-40.07" y="144.63" width="192.96" height="1.26" transform="matrix(0.59, -0.81, 0.81, 0.59, -31.84, 37.64)"/><rect class="cls-3" x="-37.02" y="144.65" width="192.96" height="1.26" transform="translate(-30.62 40.1) rotate(-53.61)"/><rect class="cls-3" x="-33.98" y="144.66" width="192.96" height="1.26" transform="translate(-29.39 42.56) rotate(-53.61)"/><rect class="cls-3" x="-30.94" y="144.68" width="192.96" height="1.26" transform="matrix(0.59, -0.81, 0.81, 0.59, -28.17, 45.01)"/><rect class="cls-3" x="-27.89" y="144.7" width="192.96" height="1.26" transform="translate(-26.94 47.47) rotate(-53.61)"/><rect class="cls-3" x="-24.85" y="144.71" width="192.96" height="1.26" transform="translate(-25.72 49.93) rotate(-53.61)"/><rect class="cls-3" x="-21.81" y="144.73" width="192.96" height="1.26" transform="translate(-24.49 52.39) rotate(-53.61)"/><rect class="cls-3" x="-18.76" y="144.75" width="192.96" height="1.26" transform="translate(-23.27 54.84) rotate(-53.61)"/><rect class="cls-3" x="-15.72" y="144.77" width="192.96" height="1.26" transform="translate(-22.05 57.3) rotate(-53.61)"/><rect class="cls-3" x="-12.68" y="144.78" width="192.96" height="1.26" transform="translate(-20.82 59.76) rotate(-53.61)"/><rect class="cls-3" x="-9.63" y="144.8" width="192.96" height="1.26" transform="translate(-19.6 62.21) rotate(-53.61)"/><rect class="cls-3" x="-6.59" y="144.82" width="192.96" height="1.26" transform="matrix(0.59, -0.81, 0.81, 0.59, -18.37, 64.67)"/><rect class="cls-3" x="-3.55" y="144.83" width="192.96" height="1.26" transform="translate(-17.15 67.13) rotate(-53.61)"/><rect class="cls-3" x="-0.5" y="144.85" width="192.96" height="1.26" transform="translate(-15.92 69.58) rotate(-53.61)"/><rect class="cls-3" x="2.54" y="144.87" width="192.96" height="1.26" transform="matrix(0.59, -0.81, 0.81, 0.59, -14.7, 72.04)"/><rect class="cls-3" x="5.58" y="144.88" width="192.96" height="1.26" transform="translate(-13.48 74.5) rotate(-53.61)"/><rect class="cls-3" x="8.63" y="144.9" width="192.96" height="1.26" transform="translate(-12.25 76.95) rotate(-53.61)"/><rect class="cls-3" x="11.67" y="144.92" width="192.96" height="1.26" transform="matrix(0.59, -0.81, 0.81, 0.59, -11.03, 79.41)"/><rect class="cls-3" x="14.71" y="144.93" width="192.96" height="1.26" transform="translate(-9.8 81.87) rotate(-53.61)"/><rect class="cls-3" x="17.76" y="144.95" width="192.96" height="1.26" transform="translate(-8.58 84.32) rotate(-53.61)"/><rect class="cls-3" x="20.8" y="144.97" width="192.96" height="1.26" transform="translate(-7.35 86.78) rotate(-53.61)"/><rect class="cls-3" x="23.84" y="144.98" width="192.96" height="1.26" transform="translate(-6.13 89.24) rotate(-53.61)"/><rect class="cls-3" x="26.89" y="145" width="192.96" height="1.26" transform="translate(-4.91 91.69) rotate(-53.61)"/><rect class="cls-3" x="29.93" y="145.02" width="192.96" height="1.26" transform="translate(-3.68 94.15) rotate(-53.61)"/><rect class="cls-3" x="32.97" y="145.03" width="192.96" height="1.26" transform="translate(-2.46 96.61) rotate(-53.61)"/><rect class="cls-3" x="36.02" y="145.05" width="192.96" height="1.26" transform="translate(-1.23 99.06) rotate(-53.61)"/><rect class="cls-3" x="39.06" y="145.07" width="192.96" height="1.26" transform="translate(-0.01 101.52) rotate(-53.61)"/><rect class="cls-3" x="42.1" y="145.08" width="192.96" height="1.26" transform="translate(1.22 103.98) rotate(-53.61)"/><rect class="cls-3" x="45.15" y="145.1" width="192.96" height="1.26" transform="translate(2.44 106.43) rotate(-53.61)"/><rect class="cls-3" x="48.19" y="145.12" width="192.96" height="1.26" transform="translate(3.66 108.89) rotate(-53.61)"/><rect class="cls-3" x="51.23" y="145.14" width="192.96" height="1.26" transform="translate(4.89 111.35) rotate(-53.61)"/><rect class="cls-3" x="54.28" y="145.15" width="192.96" height="1.26" transform="translate(6.11 113.8) rotate(-53.61)"/><rect class="cls-3" x="57.32" y="145.17" width="192.96" height="1.26" transform="translate(7.34 116.26) rotate(-53.61)"/><rect class="cls-3" x="60.36" y="145.19" width="192.96" height="1.26" transform="matrix(0.59, -0.81, 0.81, 0.59, 8.56, 118.72)"/><rect class="cls-3" x="63.41" y="145.2" width="192.96" height="1.26" transform="matrix(0.59, -0.81, 0.81, 0.59, 9.79, 121.17)"/><rect class="cls-3" x="66.45" y="145.22" width="192.96" height="1.26" transform="translate(11.01 123.63) rotate(-53.61)"/><rect class="cls-3" x="69.49" y="145.24" width="192.96" height="1.26" transform="translate(12.23 126.09) rotate(-53.61)"/><rect class="cls-3" x="72.53" y="145.25" width="192.96" height="1.26" transform="translate(13.46 128.54) rotate(-53.61)"/><rect class="cls-3" x="75.58" y="145.27" width="192.96" height="1.26" transform="matrix(0.59, -0.81, 0.81, 0.59, 14.68, 131)"/><rect class="cls-3" x="78.62" y="145.29" width="192.96" height="1.26" transform="translate(15.91 133.46) rotate(-53.61)"/><rect class="cls-3" x="81.66" y="145.3" width="192.96" height="1.26" transform="translate(17.13 135.91) rotate(-53.61)"/><rect class="cls-3" x="84.71" y="145.32" width="192.96" height="1.26" transform="translate(18.36 138.37) rotate(-53.61)"/><rect class="cls-3" x="87.75" y="145.34" width="192.96" height="1.26" transform="translate(19.58 140.83) rotate(-53.61)"/><rect class="cls-3" x="90.79" y="145.35" width="192.96" height="1.26" transform="matrix(0.59, -0.81, 0.81, 0.59, 20.8, 143.28)"/><rect class="cls-3" x="93.84" y="145.37" width="192.96" height="1.26" transform="matrix(0.59, -0.81, 0.81, 0.59, 22.03, 145.74)"/><rect class="cls-3" x="96.88" y="145.39" width="192.96" height="1.26" transform="translate(23.25 148.2) rotate(-53.61)"/><rect class="cls-3" x="99.92" y="145.4" width="192.96" height="1.26" transform="translate(24.48 150.65) rotate(-53.61)"/><rect class="cls-3" x="102.97" y="145.42" width="192.96" height="1.26" transform="translate(25.7 153.11) rotate(-53.61)"/><rect class="cls-3" x="106.01" y="145.44" width="192.96" height="1.26" transform="translate(26.92 155.57) rotate(-53.61)"/><rect class="cls-3" x="109.05" y="145.46" width="192.96" height="1.26" transform="matrix(0.59, -0.81, 0.81, 0.59, 28.15, 158.02)"/><rect class="cls-3" x="112.1" y="145.47" width="192.96" height="1.26" transform="translate(29.37 160.48) rotate(-53.61)"/><rect class="cls-3" x="115.14" y="145.49" width="192.96" height="1.26" transform="translate(30.6 162.94) rotate(-53.61)"/><rect class="cls-3" x="118.18" y="145.51" width="192.96" height="1.26" transform="translate(31.82 165.39) rotate(-53.61)"/><rect class="cls-3" x="121.23" y="145.52" width="192.96" height="1.26" transform="translate(33.05 167.85) rotate(-53.61)"/><rect class="cls-3" x="124.27" y="145.54" width="192.96" height="1.26" transform="translate(34.27 170.31) rotate(-53.61)"/><rect class="cls-3" x="127.31" y="145.56" width="192.96" height="1.26" transform="translate(35.49 172.76) rotate(-53.61)"/><rect class="cls-3" x="130.36" y="145.57" width="192.96" height="1.26" transform="translate(36.72 175.22) rotate(-53.61)"/><rect class="cls-3" x="133.4" y="145.59" width="192.96" height="1.26" transform="translate(37.94 177.68) rotate(-53.61)"/><rect class="cls-3" x="136.44" y="145.61" width="192.96" height="1.26" transform="translate(39.17 180.13) rotate(-53.61)"/><rect class="cls-3" x="139.49" y="145.62" width="192.96" height="1.26" transform="translate(40.39 182.59) rotate(-53.61)"/><rect class="cls-3" x="142.53" y="145.64" width="192.96" height="1.26" transform="translate(41.56 184.9) rotate(-53.58)"/><rect class="cls-3" x="145.57" y="145.66" width="192.96" height="1.26" transform="translate(42.78 187.35) rotate(-53.58)"/><rect class="cls-3" x="148.62" y="145.67" width="192.96" height="1.26" transform="translate(44 189.81) rotate(-53.58)"/><rect class="cls-3" x="151.66" y="145.69" width="192.96" height="1.26" transform="translate(45.22 192.26) rotate(-53.58)"/><rect class="cls-3" x="154.7" y="145.71" width="192.96" height="1.26" transform="translate(46.45 194.72) rotate(-53.58)"/><rect class="cls-3" x="157.75" y="145.73" width="192.96" height="1.26" transform="translate(47.67 197.17) rotate(-53.58)"/><rect class="cls-3" x="160.79" y="145.74" width="192.96" height="1.26" transform="translate(48.89 199.63) rotate(-53.58)"/><rect class="cls-3" x="163.83" y="145.76" width="192.96" height="1.26" transform="translate(50.11 202.09) rotate(-53.58)"/><rect class="cls-3" x="166.88" y="145.78" width="192.96" height="1.26" transform="translate(51.34 204.54) rotate(-53.58)"/><rect class="cls-3" x="169.92" y="145.79" width="192.96" height="1.26" transform="translate(52.56 207) rotate(-53.58)"/><rect class="cls-3" x="172.96" y="145.81" width="192.96" height="1.26" transform="translate(53.78 209.45) rotate(-53.58)"/><rect class="cls-3" x="176.01" y="145.83" width="192.96" height="1.26" transform="translate(55.01 211.91) rotate(-53.58)"/><rect class="cls-3" x="179.05" y="145.84" width="192.96" height="1.26" transform="translate(56.23 214.36) rotate(-53.58)"/><rect class="cls-3" x="182.09" y="145.86" width="192.96" height="1.26" transform="translate(57.45 216.82) rotate(-53.58)"/><rect class="cls-3" x="185.14" y="145.88" width="192.96" height="1.26" transform="translate(58.67 219.27) rotate(-53.58)"/><rect class="cls-3" x="188.18" y="145.89" width="192.96" height="1.26" transform="translate(59.9 221.73) rotate(-53.58)"/><rect class="cls-3" x="191.22" y="145.91" width="192.96" height="1.26" transform="translate(61.12 224.19) rotate(-53.58)"/><rect class="cls-3" x="194.27" y="145.93" width="192.96" height="1.26" transform="translate(62.34 226.64) rotate(-53.58)"/><rect class="cls-3" x="197.31" y="145.94" width="192.96" height="1.26" transform="translate(63.57 229.1) rotate(-53.58)"/><rect class="cls-3" x="200.35" y="145.96" width="192.96" height="1.26" transform="translate(64.79 231.55) rotate(-53.58)"/><rect class="cls-3" x="203.4" y="145.98" width="192.96" height="1.26" transform="translate(66.01 234.01) rotate(-53.58)"/><rect class="cls-3" x="206.44" y="145.99" width="192.96" height="1.26" transform="translate(67.23 236.46) rotate(-53.58)"/><rect class="cls-3" x="209.48" y="146.01" width="192.96" height="1.26" transform="translate(68.46 238.92) rotate(-53.58)"/><rect class="cls-3" x="212.53" y="146.03" width="192.96" height="1.26" transform="translate(69.68 241.38) rotate(-53.58)"/><rect class="cls-3" x="215.57" y="146.04" width="192.96" height="1.26" transform="translate(70.9 243.83) rotate(-53.58)"/><rect class="cls-3" x="218.61" y="146.06" width="192.96" height="1.26" transform="translate(72.13 246.29) rotate(-53.58)"/><rect class="cls-3" x="221.65" y="146.08" width="192.96" height="1.26" transform="translate(73.35 248.74) rotate(-53.58)"/><rect class="cls-3" x="224.7" y="146.1" width="192.96" height="1.26" transform="translate(74.57 251.2) rotate(-53.58)"/><rect class="cls-3" x="227.74" y="146.11" width="192.96" height="1.26" transform="translate(75.79 253.65) rotate(-53.58)"/><rect class="cls-3" x="230.78" y="146.13" width="192.96" height="1.26" transform="translate(77.02 256.11) rotate(-53.58)"/><rect class="cls-3" x="233.83" y="146.15" width="192.96" height="1.26" transform="translate(78.24 258.57) rotate(-53.58)"/><rect class="cls-3" x="236.87" y="146.16" width="192.96" height="1.26" transform="translate(79.46 261.02) rotate(-53.58)"/><rect class="cls-3" x="239.91" y="146.18" width="192.96" height="1.26" transform="translate(80.69 263.48) rotate(-53.58)"/><rect class="cls-3" x="242.96" y="146.2" width="192.96" height="1.26" transform="translate(81.91 265.93) rotate(-53.58)"/><rect class="cls-3" x="246" y="146.21" width="192.96" height="1.26" transform="translate(83.13 268.39) rotate(-53.58)"/><rect class="cls-3" x="249.04" y="146.23" width="192.96" height="1.26" transform="translate(84.35 270.84) rotate(-53.58)"/><rect class="cls-3" x="252.09" y="146.25" width="192.96" height="1.26" transform="translate(85.58 273.3) rotate(-53.58)"/><rect class="cls-3" x="255.13" y="146.26" width="192.96" height="1.26" transform="translate(86.8 275.75) rotate(-53.58)"/><rect class="cls-3" x="258.17" y="146.28" width="192.96" height="1.26" transform="translate(88.02 278.21) rotate(-53.58)"/><rect class="cls-3" x="261.22" y="146.3" width="192.96" height="1.26" transform="translate(89.25 280.67) rotate(-53.58)"/><rect class="cls-3" x="264.26" y="146.31" width="192.96" height="1.26" transform="translate(90.47 283.12) rotate(-53.58)"/><rect class="cls-3" x="267.3" y="146.33" width="192.96" height="1.26" transform="translate(91.69 285.58) rotate(-53.58)"/><rect class="cls-3" x="270.35" y="146.35" width="192.96" height="1.26" transform="translate(92.91 288.03) rotate(-53.58)"/><rect class="cls-3" x="273.39" y="146.36" width="192.96" height="1.26" transform="translate(94.14 290.49) rotate(-53.58)"/><rect class="cls-3" x="276.43" y="146.38" width="192.96" height="1.26" transform="translate(95.36 292.94) rotate(-53.58)"/><rect class="cls-3" x="279.48" y="146.4" width="192.96" height="1.26" transform="translate(96.58 295.4) rotate(-53.58)"/><rect class="cls-3" x="282.52" y="146.41" width="192.96" height="1.26" transform="translate(97.81 297.86) rotate(-53.58)"/></g><g class="cls-2"><rect class="cls-3" x="-100.93" y="144.29" width="192.96" height="1.26" transform="translate(-56.32 -11.49) rotate(-53.61)"/><rect class="cls-3" x="-97.89" y="144.31" width="192.96" height="1.26" transform="translate(-55.1 -9.03) rotate(-53.61)"/><rect class="cls-3" x="-94.84" y="144.33" width="192.96" height="1.26" transform="translate(-53.88 -6.58) rotate(-53.61)"/><rect class="cls-3" x="-91.8" y="144.34" width="192.96" height="1.26" transform="matrix(0.59, -0.81, 0.81, 0.59, -52.65, -4.12)"/><rect class="cls-3" x="-88.76" y="144.36" width="192.96" height="1.26" transform="translate(-51.43 -1.66) rotate(-53.61)"/><rect class="cls-3" x="-85.71" y="144.38" width="192.96" height="1.26" transform="translate(-50.2 0.79) rotate(-53.61)"/><rect class="cls-3" x="-82.67" y="144.39" width="192.96" height="1.26" transform="translate(-48.98 3.25) rotate(-53.61)"/><rect class="cls-3" x="-79.63" y="144.41" width="192.96" height="1.26" transform="translate(-47.75 5.71) rotate(-53.61)"/><rect class="cls-3" x="-76.59" y="144.43" width="192.96" height="1.26" transform="translate(-46.53 8.16) rotate(-53.61)"/><rect class="cls-3" x="-73.54" y="144.45" width="192.96" height="1.26" transform="translate(-45.31 10.62) rotate(-53.61)"/><rect class="cls-3" x="-70.5" y="144.46" width="192.96" height="1.26" transform="translate(-44.08 13.08) rotate(-53.61)"/><rect class="cls-3" x="-67.46" y="144.48" width="192.96" height="1.26" transform="matrix(0.59, -0.81, 0.81, 0.59, -42.86, 15.53)"/><rect class="cls-3" x="-64.41" y="144.5" width="192.96" height="1.26" transform="translate(-41.63 17.99) rotate(-53.61)"/><rect class="cls-3" x="-61.37" y="144.51" width="192.96" height="1.26" transform="translate(-40.41 20.45) rotate(-53.61)"/><rect class="cls-3" x="-58.33" y="144.53" width="192.96" height="1.26" transform="translate(-39.18 22.9) rotate(-53.61)"/><rect class="cls-3" x="-55.28" y="144.55" width="192.96" height="1.26" transform="translate(-37.96 25.36) rotate(-53.61)"/><rect class="cls-3" x="-52.24" y="144.56" width="192.96" height="1.26" transform="translate(-36.74 27.82) rotate(-53.61)"/><rect class="cls-3" x="-49.2" y="144.58" width="192.96" height="1.26" transform="translate(-35.51 30.27) rotate(-53.61)"/><rect class="cls-3" x="-46.15" y="144.6" width="192.96" height="1.26" transform="matrix(0.59, -0.81, 0.81, 0.59, -34.29, 32.73)"/><rect class="cls-3" x="-43.11" y="144.61" width="192.96" height="1.26" transform="translate(-33.06 35.19) rotate(-53.61)"/><rect class="cls-3" x="-40.07" y="144.63" width="192.96" height="1.26" transform="matrix(0.59, -0.81, 0.81, 0.59, -31.84, 37.64)"/><rect class="cls-3" x="-37.02" y="144.65" width="192.96" height="1.26" transform="translate(-30.62 40.1) rotate(-53.61)"/><rect class="cls-3" x="-33.98" y="144.66" width="192.96" height="1.26" transform="translate(-29.39 42.56) rotate(-53.61)"/><rect class="cls-3" x="-30.94" y="144.68" width="192.96" height="1.26" transform="matrix(0.59, -0.81, 0.81, 0.59, -28.17, 45.01)"/><rect class="cls-3" x="-27.89" y="144.7" width="192.96" height="1.26" transform="translate(-26.94 47.47) rotate(-53.61)"/><rect class="cls-3" x="-24.85" y="144.71" width="192.96" height="1.26" transform="translate(-25.72 49.93) rotate(-53.61)"/><rect class="cls-3" x="-21.81" y="144.73" width="192.96" height="1.26" transform="translate(-24.49 52.39) rotate(-53.61)"/><rect class="cls-3" x="-18.76" y="144.75" width="192.96" height="1.26" transform="translate(-23.27 54.84) rotate(-53.61)"/><rect class="cls-3" x="-15.72" y="144.77" width="192.96" height="1.26" transform="translate(-22.05 57.3) rotate(-53.61)"/><rect class="cls-3" x="-12.68" y="144.78" width="192.96" height="1.26" transform="translate(-20.82 59.76) rotate(-53.61)"/><rect class="cls-3" x="-9.63" y="144.8" width="192.96" height="1.26" transform="translate(-19.6 62.21) rotate(-53.61)"/><rect class="cls-3" x="-6.59" y="144.82" width="192.96" height="1.26" transform="matrix(0.59, -0.81, 0.81, 0.59, -18.37, 64.67)"/><rect class="cls-3" x="-3.55" y="144.83" width="192.96" height="1.26" transform="translate(-17.15 67.13) rotate(-53.61)"/><rect class="cls-3" x="-0.5" y="144.85" width="192.96" height="1.26" transform="translate(-15.92 69.58) rotate(-53.61)"/><rect class="cls-3" x="2.54" y="144.87" width="192.96" height="1.26" transform="matrix(0.59, -0.81, 0.81, 0.59, -14.7, 72.04)"/><rect class="cls-3" x="5.58" y="144.88" width="192.96" height="1.26" transform="translate(-13.48 74.5) rotate(-53.61)"/><rect class="cls-3" x="8.63" y="144.9" width="192.96" height="1.26" transform="translate(-12.25 76.95) rotate(-53.61)"/><rect class="cls-3" x="11.67" y="144.92" width="192.96" height="1.26" transform="matrix(0.59, -0.81, 0.81, 0.59, -11.03, 79.41)"/><rect class="cls-3" x="14.71" y="144.93" width="192.96" height="1.26" transform="translate(-9.8 81.87) rotate(-53.61)"/><rect class="cls-3" x="17.76" y="144.95" width="192.96" height="1.26" transform="translate(-8.58 84.32) rotate(-53.61)"/><rect class="cls-3" x="20.8" y="144.97" width="192.96" height="1.26" transform="translate(-7.35 86.78) rotate(-53.61)"/><rect class="cls-3" x="23.84" y="144.98" width="192.96" height="1.26" transform="translate(-6.13 89.24) rotate(-53.61)"/><rect class="cls-3" x="26.89" y="145" width="192.96" height="1.26" transform="translate(-4.91 91.69) rotate(-53.61)"/><rect class="cls-3" x="29.93" y="145.02" width="192.96" height="1.26" transform="translate(-3.68 94.15) rotate(-53.61)"/><rect class="cls-3" x="32.97" y="145.03" width="192.96" height="1.26" transform="translate(-2.46 96.61) rotate(-53.61)"/><rect class="cls-3" x="36.02" y="145.05" width="192.96" height="1.26" transform="translate(-1.23 99.06) rotate(-53.61)"/><rect class="cls-3" x="39.06" y="145.07" width="192.96" height="1.26" transform="translate(-0.01 101.52) rotate(-53.61)"/><rect class="cls-3" x="42.1" y="145.08" width="192.96" height="1.26" transform="translate(1.22 103.98) rotate(-53.61)"/><rect class="cls-3" x="45.15" y="145.1" width="192.96" height="1.26" transform="translate(2.44 106.43) rotate(-53.61)"/><rect class="cls-3" x="48.19" y="145.12" width="192.96" height="1.26" transform="translate(3.66 108.89) rotate(-53.61)"/><rect class="cls-3" x="51.23" y="145.14" width="192.96" height="1.26" transform="translate(4.89 111.35) rotate(-53.61)"/><rect class="cls-3" x="54.28" y="145.15" width="192.96" height="1.26" transform="translate(6.11 113.8) rotate(-53.61)"/><rect class="cls-3" x="57.32" y="145.17" width="192.96" height="1.26" transform="translate(7.34 116.26) rotate(-53.61)"/><rect class="cls-3" x="60.36" y="145.19" width="192.96" height="1.26" transform="matrix(0.59, -0.81, 0.81, 0.59, 8.56, 118.72)"/><rect class="cls-3" x="63.41" y="145.2" width="192.96" height="1.26" transform="matrix(0.59, -0.81, 0.81, 0.59, 9.79, 121.17)"/><rect class="cls-3" x="66.45" y="145.22" width="192.96" height="1.26" transform="translate(11.01 123.63) rotate(-53.61)"/><rect class="cls-3" x="69.49" y="145.24" width="192.96" height="1.26" transform="translate(12.23 126.09) rotate(-53.61)"/><rect class="cls-3" x="72.53" y="145.25" width="192.96" height="1.26" transform="translate(13.46 128.54) rotate(-53.61)"/><rect class="cls-3" x="75.58" y="145.27" width="192.96" height="1.26" transform="matrix(0.59, -0.81, 0.81, 0.59, 14.68, 131)"/><rect class="cls-3" x="78.62" y="145.29" width="192.96" height="1.26" transform="translate(15.91 133.46) rotate(-53.61)"/><rect class="cls-3" x="81.66" y="145.3" width="192.96" height="1.26" transform="translate(17.13 135.91) rotate(-53.61)"/><rect class="cls-3" x="84.71" y="145.32" width="192.96" height="1.26" transform="translate(18.36 138.37) rotate(-53.61)"/><rect class="cls-3" x="87.75" y="145.34" width="192.96" height="1.26" transform="translate(19.58 140.83) rotate(-53.61)"/><rect class="cls-3" x="90.79" y="145.35" width="192.96" height="1.26" transform="matrix(0.59, -0.81, 0.81, 0.59, 20.8, 143.28)"/><rect class="cls-3" x="93.84" y="145.37" width="192.96" height="1.26" transform="matrix(0.59, -0.81, 0.81, 0.59, 22.03, 145.74)"/><rect class="cls-3" x="96.88" y="145.39" width="192.96" height="1.26" transform="translate(23.25 148.2) rotate(-53.61)"/><rect class="cls-3" x="99.92" y="145.4" width="192.96" height="1.26" transform="translate(24.48 150.65) rotate(-53.61)"/><rect class="cls-3" x="102.97" y="145.42" width="192.96" height="1.26" transform="translate(25.7 153.11) rotate(-53.61)"/><rect class="cls-3" x="106.01" y="145.44" width="192.96" height="1.26" transform="translate(26.92 155.57) rotate(-53.61)"/><rect class="cls-3" x="109.05" y="145.46" width="192.96" height="1.26" transform="matrix(0.59, -0.81, 0.81, 0.59, 28.15, 158.02)"/><rect class="cls-3" x="112.1" y="145.47" width="192.96" height="1.26" transform="translate(29.37 160.48) rotate(-53.61)"/><rect class="cls-3" x="115.14" y="145.49" width="192.96" height="1.26" transform="translate(30.6 162.94) rotate(-53.61)"/><rect class="cls-3" x="118.18" y="145.51" width="192.96" height="1.26" transform="translate(31.82 165.39) rotate(-53.61)"/><rect class="cls-3" x="121.23" y="145.52" width="192.96" height="1.26" transform="translate(33.05 167.85) rotate(-53.61)"/><rect class="cls-3" x="124.27" y="145.54" width="192.96" height="1.26" transform="translate(34.27 170.31) rotate(-53.61)"/><rect class="cls-3" x="127.31" y="145.56" width="192.96" height="1.26" transform="translate(35.49 172.76) rotate(-53.61)"/><rect class="cls-3" x="130.36" y="145.57" width="192.96" height="1.26" transform="translate(36.72 175.22) rotate(-53.61)"/><rect class="cls-3" x="133.4" y="145.59" width="192.96" height="1.26" transform="translate(37.94 177.68) rotate(-53.61)"/><rect class="cls-3" x="136.44" y="145.61" width="192.96" height="1.26" transform="translate(39.17 180.13) rotate(-53.61)"/><rect class="cls-3" x="139.49" y="145.62" width="192.96" height="1.26" transform="translate(40.39 182.59) rotate(-53.61)"/><rect class="cls-3" x="142.53" y="145.64" width="192.96" height="1.26" transform="translate(41.56 184.9) rotate(-53.58)"/><rect class="cls-3" x="145.57" y="145.66" width="192.96" height="1.26" transform="translate(42.78 187.35) rotate(-53.58)"/><rect class="cls-3" x="148.62" y="145.67" width="192.96" height="1.26" transform="translate(44 189.81) rotate(-53.58)"/><rect class="cls-3" x="151.66" y="145.69" width="192.96" height="1.26" transform="translate(45.22 192.26) rotate(-53.58)"/><rect class="cls-3" x="154.7" y="145.71" width="192.96" height="1.26" transform="translate(46.45 194.72) rotate(-53.58)"/><rect class="cls-3" x="157.75" y="145.73" width="192.96" height="1.26" transform="translate(47.67 197.17) rotate(-53.58)"/><rect class="cls-3" x="160.79" y="145.74" width="192.96" height="1.26" transform="translate(48.89 199.63) rotate(-53.58)"/><rect class="cls-3" x="163.83" y="145.76" width="192.96" height="1.26" transform="translate(50.11 202.09) rotate(-53.58)"/><rect class="cls-3" x="166.88" y="145.78" width="192.96" height="1.26" transform="translate(51.34 204.54) rotate(-53.58)"/><rect class="cls-3" x="169.92" y="145.79" width="192.96" height="1.26" transform="translate(52.56 207) rotate(-53.58)"/><rect class="cls-3" x="172.96" y="145.81" width="192.96" height="1.26" transform="translate(53.78 209.45) rotate(-53.58)"/><rect class="cls-3" x="176.01" y="145.83" width="192.96" height="1.26" transform="translate(55.01 211.91) rotate(-53.58)"/><rect class="cls-3" x="179.05" y="145.84" width="192.96" height="1.26" transform="translate(56.23 214.36) rotate(-53.58)"/><rect class="cls-3" x="182.09" y="145.86" width="192.96" height="1.26" transform="translate(57.45 216.82) rotate(-53.58)"/><rect class="cls-3" x="185.14" y="145.88" width="192.96" height="1.26" transform="translate(58.67 219.27) rotate(-53.58)"/><rect class="cls-3" x="188.18" y="145.89" width="192.96" height="1.26" transform="translate(59.9 221.73) rotate(-53.58)"/><rect class="cls-3" x="191.22" y="145.91" width="192.96" height="1.26" transform="translate(61.12 224.19) rotate(-53.58)"/><rect class="cls-3" x="194.27" y="145.93" width="192.96" height="1.26" transform="translate(62.34 226.64) rotate(-53.58)"/><rect class="cls-3" x="197.31" y="145.94" width="192.96" height="1.26" transform="translate(63.57 229.1) rotate(-53.58)"/><rect class="cls-3" x="200.35" y="145.96" width="192.96" height="1.26" transform="translate(64.79 231.55) rotate(-53.58)"/><rect class="cls-3" x="203.4" y="145.98" width="192.96" height="1.26" transform="translate(66.01 234.01) rotate(-53.58)"/><rect class="cls-3" x="206.44" y="145.99" width="192.96" height="1.26" transform="translate(67.23 236.46) rotate(-53.58)"/><rect class="cls-3" x="209.48" y="146.01" width="192.96" height="1.26" transform="translate(68.46 238.92) rotate(-53.58)"/><rect class="cls-3" x="212.53" y="146.03" width="192.96" height="1.26" transform="translate(69.68 241.38) rotate(-53.58)"/><rect class="cls-3" x="215.57" y="146.04" width="192.96" height="1.26" transform="translate(70.9 243.83) rotate(-53.58)"/><rect class="cls-3" x="218.61" y="146.06" width="192.96" height="1.26" transform="translate(72.13 246.29) rotate(-53.58)"/><rect class="cls-3" x="221.65" y="146.08" width="192.96" height="1.26" transform="translate(73.35 248.74) rotate(-53.58)"/><rect class="cls-3" x="224.7" y="146.1" width="192.96" height="1.26" transform="translate(74.57 251.2) rotate(-53.58)"/><rect class="cls-3" x="227.74" y="146.11" width="192.96" height="1.26" transform="translate(75.79 253.65) rotate(-53.58)"/><rect class="cls-3" x="230.78" y="146.13" width="192.96" height="1.26" transform="translate(77.02 256.11) rotate(-53.58)"/><rect class="cls-3" x="233.83" y="146.15" width="192.96" height="1.26" transform="translate(78.24 258.57) rotate(-53.58)"/><rect class="cls-3" x="236.87" y="146.16" width="192.96" height="1.26" transform="translate(79.46 261.02) rotate(-53.58)"/><rect class="cls-3" x="239.91" y="146.18" width="192.96" height="1.26" transform="translate(80.69 263.48) rotate(-53.58)"/><rect class="cls-3" x="242.96" y="146.2" width="192.96" height="1.26" transform="translate(81.91 265.93) rotate(-53.58)"/><rect class="cls-3" x="246" y="146.21" width="192.96" height="1.26" transform="translate(83.13 268.39) rotate(-53.58)"/><rect class="cls-3" x="249.04" y="146.23" width="192.96" height="1.26" transform="translate(84.35 270.84) rotate(-53.58)"/><rect class="cls-3" x="252.09" y="146.25" width="192.96" height="1.26" transform="translate(85.58 273.3) rotate(-53.58)"/><rect class="cls-3" x="255.13" y="146.26" width="192.96" height="1.26" transform="translate(86.8 275.75) rotate(-53.58)"/><rect class="cls-3" x="258.17" y="146.28" width="192.96" height="1.26" transform="translate(88.02 278.21) rotate(-53.58)"/><rect class="cls-3" x="261.22" y="146.3" width="192.96" height="1.26" transform="translate(89.25 280.67) rotate(-53.58)"/><rect class="cls-3" x="264.26" y="146.31" width="192.96" height="1.26" transform="translate(90.47 283.12) rotate(-53.58)"/><rect class="cls-3" x="267.3" y="146.33" width="192.96" height="1.26" transform="translate(91.69 285.58) rotate(-53.58)"/><rect class="cls-3" x="270.35" y="146.35" width="192.96" height="1.26" transform="translate(92.91 288.03) rotate(-53.58)"/><rect class="cls-3" x="273.39" y="146.36" width="192.96" height="1.26" transform="translate(94.14 290.49) rotate(-53.58)"/><rect class="cls-3" x="276.43" y="146.38" width="192.96" height="1.26" transform="translate(95.36 292.94) rotate(-53.58)"/><rect class="cls-3" x="279.48" y="146.4" width="192.96" height="1.26" transform="translate(96.58 295.4) rotate(-53.58)"/><rect class="cls-3" x="282.52" y="146.41" width="192.96" height="1.26" transform="translate(97.81 297.86) rotate(-53.58)"/><rect class="cls-3" x="-100.93" y="144.29" width="192.96" height="1.26" transform="translate(-56.32 -11.49) rotate(-53.61)"/><rect class="cls-3" x="-97.89" y="144.31" width="192.96" height="1.26" transform="translate(-55.1 -9.03) rotate(-53.61)"/><rect class="cls-3" x="-94.84" y="144.33" width="192.96" height="1.26" transform="translate(-53.88 -6.58) rotate(-53.61)"/><rect class="cls-3" x="-91.8" y="144.34" width="192.96" height="1.26" transform="matrix(0.59, -0.81, 0.81, 0.59, -52.65, -4.12)"/><rect class="cls-3" x="-88.76" y="144.36" width="192.96" height="1.26" transform="translate(-51.43 -1.66) rotate(-53.61)"/><rect class="cls-3" x="-85.71" y="144.38" width="192.96" height="1.26" transform="translate(-50.2 0.79) rotate(-53.61)"/><rect class="cls-3" x="-82.67" y="144.39" width="192.96" height="1.26" transform="translate(-48.98 3.25) rotate(-53.61)"/><rect class="cls-3" x="-79.63" y="144.41" width="192.96" height="1.26" transform="translate(-47.75 5.71) rotate(-53.61)"/><rect class="cls-3" x="-76.59" y="144.43" width="192.96" height="1.26" transform="translate(-46.53 8.16) rotate(-53.61)"/><rect class="cls-3" x="-73.54" y="144.45" width="192.96" height="1.26" transform="translate(-45.31 10.62) rotate(-53.61)"/><rect class="cls-3" x="-70.5" y="144.46" width="192.96" height="1.26" transform="translate(-44.08 13.08) rotate(-53.61)"/><rect class="cls-3" x="-67.46" y="144.48" width="192.96" height="1.26" transform="matrix(0.59, -0.81, 0.81, 0.59, -42.86, 15.53)"/><rect class="cls-3" x="-64.41" y="144.5" width="192.96" height="1.26" transform="translate(-41.63 17.99) rotate(-53.61)"/><rect class="cls-3" x="-61.37" y="144.51" width="192.96" height="1.26" transform="translate(-40.41 20.45) rotate(-53.61)"/><rect class="cls-3" x="-58.33" y="144.53" width="192.96" height="1.26" transform="translate(-39.18 22.9) rotate(-53.61)"/><rect class="cls-3" x="-55.28" y="144.55" width="192.96" height="1.26" transform="translate(-37.96 25.36) rotate(-53.61)"/><rect class="cls-3" x="-52.24" y="144.56" width="192.96" height="1.26" transform="translate(-36.74 27.82) rotate(-53.61)"/><rect class="cls-3" x="-49.2" y="144.58" width="192.96" height="1.26" transform="translate(-35.51 30.27) rotate(-53.61)"/><rect class="cls-3" x="-46.15" y="144.6" width="192.96" height="1.26" transform="matrix(0.59, -0.81, 0.81, 0.59, -34.29, 32.73)"/><rect class="cls-3" x="-43.11" y="144.61" width="192.96" height="1.26" transform="translate(-33.06 35.19) rotate(-53.61)"/><rect class="cls-3" x="-40.07" y="144.63" width="192.96" height="1.26" transform="matrix(0.59, -0.81, 0.81, 0.59, -31.84, 37.64)"/><rect class="cls-3" x="-37.02" y="144.65" width="192.96" height="1.26" transform="translate(-30.62 40.1) rotate(-53.61)"/><rect class="cls-3" x="-33.98" y="144.66" width="192.96" height="1.26" transform="translate(-29.39 42.56) rotate(-53.61)"/><rect class="cls-3" x="-30.94" y="144.68" width="192.96" height="1.26" transform="matrix(0.59, -0.81, 0.81, 0.59, -28.17, 45.01)"/><rect class="cls-3" x="-27.89" y="144.7" width="192.96" height="1.26" transform="translate(-26.94 47.47) rotate(-53.61)"/><rect class="cls-3" x="-24.85" y="144.71" width="192.96" height="1.26" transform="translate(-25.72 49.93) rotate(-53.61)"/><rect class="cls-3" x="-21.81" y="144.73" width="192.96" height="1.26" transform="translate(-24.49 52.39) rotate(-53.61)"/><rect class="cls-3" x="-18.76" y="144.75" width="192.96" height="1.26" transform="translate(-23.27 54.84) rotate(-53.61)"/><rect class="cls-3" x="-15.72" y="144.77" width="192.96" height="1.26" transform="translate(-22.05 57.3) rotate(-53.61)"/><rect class="cls-3" x="-12.68" y="144.78" width="192.96" height="1.26" transform="translate(-20.82 59.76) rotate(-53.61)"/><rect class="cls-3" x="-9.63" y="144.8" width="192.96" height="1.26" transform="translate(-19.6 62.21) rotate(-53.61)"/><rect class="cls-3" x="-6.59" y="144.82" width="192.96" height="1.26" transform="matrix(0.59, -0.81, 0.81, 0.59, -18.37, 64.67)"/><rect class="cls-3" x="-3.55" y="144.83" width="192.96" height="1.26" transform="translate(-17.15 67.13) rotate(-53.61)"/><rect class="cls-3" x="-0.5" y="144.85" width="192.96" height="1.26" transform="translate(-15.92 69.58) rotate(-53.61)"/><rect class="cls-3" x="2.54" y="144.87" width="192.96" height="1.26" transform="matrix(0.59, -0.81, 0.81, 0.59, -14.7, 72.04)"/><rect class="cls-3" x="5.58" y="144.88" width="192.96" height="1.26" transform="translate(-13.48 74.5) rotate(-53.61)"/><rect class="cls-3" x="8.63" y="144.9" width="192.96" height="1.26" transform="translate(-12.25 76.95) rotate(-53.61)"/><rect class="cls-3" x="11.67" y="144.92" width="192.96" height="1.26" transform="matrix(0.59, -0.81, 0.81, 0.59, -11.03, 79.41)"/><rect class="cls-3" x="14.71" y="144.93" width="192.96" height="1.26" transform="translate(-9.8 81.87) rotate(-53.61)"/><rect class="cls-3" x="17.76" y="144.95" width="192.96" height="1.26" transform="translate(-8.58 84.32) rotate(-53.61)"/><rect class="cls-3" x="20.8" y="144.97" width="192.96" height="1.26" transform="translate(-7.35 86.78) rotate(-53.61)"/><rect class="cls-3" x="23.84" y="144.98" width="192.96" height="1.26" transform="translate(-6.13 89.24) rotate(-53.61)"/><rect class="cls-3" x="26.89" y="145" width="192.96" height="1.26" transform="translate(-4.91 91.69) rotate(-53.61)"/><rect class="cls-3" x="29.93" y="145.02" width="192.96" height="1.26" transform="translate(-3.68 94.15) rotate(-53.61)"/><rect class="cls-3" x="32.97" y="145.03" width="192.96" height="1.26" transform="translate(-2.46 96.61) rotate(-53.61)"/><rect class="cls-3" x="36.02" y="145.05" width="192.96" height="1.26" transform="translate(-1.23 99.06) rotate(-53.61)"/><rect class="cls-3" x="39.06" y="145.07" width="192.96" height="1.26" transform="translate(-0.01 101.52) rotate(-53.61)"/><rect class="cls-3" x="42.1" y="145.08" width="192.96" height="1.26" transform="translate(1.22 103.98) rotate(-53.61)"/><rect class="cls-3" x="45.15" y="145.1" width="192.96" height="1.26" transform="translate(2.44 106.43) rotate(-53.61)"/><rect class="cls-3" x="48.19" y="145.12" width="192.96" height="1.26" transform="translate(3.66 108.89) rotate(-53.61)"/><rect class="cls-3" x="51.23" y="145.14" width="192.96" height="1.26" transform="translate(4.89 111.35) rotate(-53.61)"/><rect class="cls-3" x="54.28" y="145.15" width="192.96" height="1.26" transform="translate(6.11 113.8) rotate(-53.61)"/><rect class="cls-3" x="57.32" y="145.17" width="192.96" height="1.26" transform="translate(7.34 116.26) rotate(-53.61)"/><rect class="cls-3" x="60.36" y="145.19" width="192.96" height="1.26" transform="matrix(0.59, -0.81, 0.81, 0.59, 8.56, 118.72)"/><rect class="cls-3" x="63.41" y="145.2" width="192.96" height="1.26" transform="matrix(0.59, -0.81, 0.81, 0.59, 9.79, 121.17)"/><rect class="cls-3" x="66.45" y="145.22" width="192.96" height="1.26" transform="translate(11.01 123.63) rotate(-53.61)"/><rect class="cls-3" x="69.49" y="145.24" width="192.96" height="1.26" transform="translate(12.23 126.09) rotate(-53.61)"/><rect class="cls-3" x="72.53" y="145.25" width="192.96" height="1.26" transform="translate(13.46 128.54) rotate(-53.61)"/><rect class="cls-3" x="75.58" y="145.27" width="192.96" height="1.26" transform="matrix(0.59, -0.81, 0.81, 0.59, 14.68, 131)"/><rect class="cls-3" x="78.62" y="145.29" width="192.96" height="1.26" transform="translate(15.91 133.46) rotate(-53.61)"/><rect class="cls-3" x="81.66" y="145.3" width="192.96" height="1.26" transform="translate(17.13 135.91) rotate(-53.61)"/><rect class="cls-3" x="84.71" y="145.32" width="192.96" height="1.26" transform="translate(18.36 138.37) rotate(-53.61)"/><rect class="cls-3" x="87.75" y="145.34" width="192.96" height="1.26" transform="translate(19.58 140.83) rotate(-53.61)"/><rect class="cls-3" x="90.79" y="145.35" width="192.96" height="1.26" transform="matrix(0.59, -0.81, 0.81, 0.59, 20.8, 143.28)"/><rect class="cls-3" x="93.84" y="145.37" width="192.96" height="1.26" transform="matrix(0.59, -0.81, 0.81, 0.59, 22.03, 145.74)"/><rect class="cls-3" x="96.88" y="145.39" width="192.96" height="1.26" transform="translate(23.25 148.2) rotate(-53.61)"/><rect class="cls-3" x="99.92" y="145.4" width="192.96" height="1.26" transform="translate(24.48 150.65) rotate(-53.61)"/><rect class="cls-3" x="102.97" y="145.42" width="192.96" height="1.26" transform="translate(25.7 153.11) rotate(-53.61)"/><rect class="cls-3" x="106.01" y="145.44" width="192.96" height="1.26" transform="translate(26.92 155.57) rotate(-53.61)"/><rect class="cls-3" x="109.05" y="145.46" width="192.96" height="1.26" transform="matrix(0.59, -0.81, 0.81, 0.59, 28.15, 158.02)"/><rect class="cls-3" x="112.1" y="145.47" width="192.96" height="1.26" transform="translate(29.37 160.48) rotate(-53.61)"/><rect class="cls-3" x="115.14" y="145.49" width="192.96" height="1.26" transform="translate(30.6 162.94) rotate(-53.61)"/><rect class="cls-3" x="118.18" y="145.51" width="192.96" height="1.26" transform="translate(31.82 165.39) rotate(-53.61)"/><rect class="cls-3" x="121.23" y="145.52" width="192.96" height="1.26" transform="translate(33.05 167.85) rotate(-53.61)"/><rect class="cls-3" x="124.27" y="145.54" width="192.96" height="1.26" transform="translate(34.27 170.31) rotate(-53.61)"/><rect class="cls-3" x="127.31" y="145.56" width="192.96" height="1.26" transform="translate(35.49 172.76) rotate(-53.61)"/><rect class="cls-3" x="130.36" y="145.57" width="192.96" height="1.26" transform="translate(36.72 175.22) rotate(-53.61)"/><rect class="cls-3" x="133.4" y="145.59" width="192.96" height="1.26" transform="translate(37.94 177.68) rotate(-53.61)"/><rect class="cls-3" x="136.44" y="145.61" width="192.96" height="1.26" transform="translate(39.17 180.13) rotate(-53.61)"/><rect class="cls-3" x="139.49" y="145.62" width="192.96" height="1.26" transform="translate(40.39 182.59) rotate(-53.61)"/><rect class="cls-3" x="142.53" y="145.64" width="192.96" height="1.26" transform="translate(41.56 184.9) rotate(-53.58)"/><rect class="cls-3" x="145.57" y="145.66" width="192.96" height="1.26" transform="translate(42.78 187.35) rotate(-53.58)"/><rect class="cls-3" x="148.62" y="145.67" width="192.96" height="1.26" transform="translate(44 189.81) rotate(-53.58)"/><rect class="cls-3" x="151.66" y="145.69" width="192.96" height="1.26" transform="translate(45.22 192.26) rotate(-53.58)"/><rect class="cls-3" x="154.7" y="145.71" width="192.96" height="1.26" transform="translate(46.45 194.72) rotate(-53.58)"/><rect class="cls-3" x="157.75" y="145.73" width="192.96" height="1.26" transform="translate(47.67 197.17) rotate(-53.58)"/><rect class="cls-3" x="160.79" y="145.74" width="192.96" height="1.26" transform="translate(48.89 199.63) rotate(-53.58)"/><rect class="cls-3" x="163.83" y="145.76" width="192.96" height="1.26" transform="translate(50.11 202.09) rotate(-53.58)"/><rect class="cls-3" x="166.88" y="145.78" width="192.96" height="1.26" transform="translate(51.34 204.54) rotate(-53.58)"/><rect class="cls-3" x="169.92" y="145.79" width="192.96" height="1.26" transform="translate(52.56 207) rotate(-53.58)"/><rect class="cls-3" x="172.96" y="145.81" width="192.96" height="1.26" transform="translate(53.78 209.45) rotate(-53.58)"/><rect class="cls-3" x="176.01" y="145.83" width="192.96" height="1.26" transform="translate(55.01 211.91) rotate(-53.58)"/><rect class="cls-3" x="179.05" y="145.84" width="192.96" height="1.26" transform="translate(56.23 214.36) rotate(-53.58)"/><rect class="cls-3" x="182.09" y="145.86" width="192.96" height="1.26" transform="translate(57.45 216.82) rotate(-53.58)"/><rect class="cls-3" x="185.14" y="145.88" width="192.96" height="1.26" transform="translate(58.67 219.27) rotate(-53.58)"/><rect class="cls-3" x="188.18" y="145.89" width="192.96" height="1.26" transform="translate(59.9 221.73) rotate(-53.58)"/><rect class="cls-3" x="191.22" y="145.91" width="192.96" height="1.26" transform="translate(61.12 224.19) rotate(-53.58)"/><rect class="cls-3" x="194.27" y="145.93" width="192.96" height="1.26" transform="translate(62.34 226.64) rotate(-53.58)"/><rect class="cls-3" x="197.31" y="145.94" width="192.96" height="1.26" transform="translate(63.57 229.1) rotate(-53.58)"/><rect class="cls-3" x="200.35" y="145.96" width="192.96" height="1.26" transform="translate(64.79 231.55) rotate(-53.58)"/><rect class="cls-3" x="203.4" y="145.98" width="192.96" height="1.26" transform="translate(66.01 234.01) rotate(-53.58)"/><rect class="cls-3" x="206.44" y="145.99" width="192.96" height="1.26" transform="translate(67.23 236.46) rotate(-53.58)"/><rect class="cls-3" x="209.48" y="146.01" width="192.96" height="1.26" transform="translate(68.46 238.92) rotate(-53.58)"/><rect class="cls-3" x="212.53" y="146.03" width="192.96" height="1.26" transform="translate(69.68 241.38) rotate(-53.58)"/><rect class="cls-3" x="215.57" y="146.04" width="192.96" height="1.26" transform="translate(70.9 243.83) rotate(-53.58)"/><rect class="cls-3" x="218.61" y="146.06" width="192.96" height="1.26" transform="translate(72.13 246.29) rotate(-53.58)"/><rect class="cls-3" x="221.65" y="146.08" width="192.96" height="1.26" transform="translate(73.35 248.74) rotate(-53.58)"/><rect class="cls-3" x="224.7" y="146.1" width="192.96" height="1.26" transform="translate(74.57 251.2) rotate(-53.58)"/><rect class="cls-3" x="227.74" y="146.11" width="192.96" height="1.26" transform="translate(75.79 253.65) rotate(-53.58)"/><rect class="cls-3" x="230.78" y="146.13" width="192.96" height="1.26" transform="translate(77.02 256.11) rotate(-53.58)"/><rect class="cls-3" x="233.83" y="146.15" width="192.96" height="1.26" transform="translate(78.24 258.57) rotate(-53.58)"/><rect class="cls-3" x="236.87" y="146.16" width="192.96" height="1.26" transform="translate(79.46 261.02) rotate(-53.58)"/><rect class="cls-3" x="239.91" y="146.18" width="192.96" height="1.26" transform="translate(80.69 263.48) rotate(-53.58)"/><rect class="cls-3" x="242.96" y="146.2" width="192.96" height="1.26" transform="translate(81.91 265.93) rotate(-53.58)"/><rect class="cls-3" x="246" y="146.21" width="192.96" height="1.26" transform="translate(83.13 268.39) rotate(-53.58)"/><rect class="cls-3" x="249.04" y="146.23" width="192.96" height="1.26" transform="translate(84.35 270.84) rotate(-53.58)"/><rect class="cls-3" x="252.09" y="146.25" width="192.96" height="1.26" transform="translate(85.58 273.3) rotate(-53.58)"/><rect class="cls-3" x="255.13" y="146.26" width="192.96" height="1.26" transform="translate(86.8 275.75) rotate(-53.58)"/><rect class="cls-3" x="258.17" y="146.28" width="192.96" height="1.26" transform="translate(88.02 278.21) rotate(-53.58)"/><rect class="cls-3" x="261.22" y="146.3" width="192.96" height="1.26" transform="translate(89.25 280.67) rotate(-53.58)"/><rect class="cls-3" x="264.26" y="146.31" width="192.96" height="1.26" transform="translate(90.47 283.12) rotate(-53.58)"/><rect class="cls-3" x="267.3" y="146.33" width="192.96" height="1.26" transform="translate(91.69 285.58) rotate(-53.58)"/><rect class="cls-3" x="270.35" y="146.35" width="192.96" height="1.26" transform="translate(92.91 288.03) rotate(-53.58)"/><rect class="cls-3" x="273.39" y="146.36" width="192.96" height="1.26" transform="translate(94.14 290.49) rotate(-53.58)"/><rect class="cls-3" x="276.43" y="146.38" width="192.96" height="1.26" transform="translate(95.36 292.94) rotate(-53.58)"/><rect class="cls-3" x="279.48" y="146.4" width="192.96" height="1.26" transform="translate(96.58 295.4) rotate(-53.58)"/><rect class="cls-3" x="282.52" y="146.41" width="192.96" height="1.26" transform="translate(97.81 297.86) rotate(-53.58)"/><rect class="cls-3" x="-100.93" y="144.29" width="192.96" height="1.26" transform="translate(-56.32 -11.49) rotate(-53.61)"/><rect class="cls-3" x="-97.89" y="144.31" width="192.96" height="1.26" transform="translate(-55.1 -9.03) rotate(-53.61)"/><rect class="cls-3" x="-94.84" y="144.33" width="192.96" height="1.26" transform="translate(-53.88 -6.58) rotate(-53.61)"/><rect class="cls-3" x="-91.8" y="144.34" width="192.96" height="1.26" transform="matrix(0.59, -0.81, 0.81, 0.59, -52.65, -4.12)"/><rect class="cls-3" x="-88.76" y="144.36" width="192.96" height="1.26" transform="translate(-51.43 -1.66) rotate(-53.61)"/><rect class="cls-3" x="-85.71" y="144.38" width="192.96" height="1.26" transform="translate(-50.2 0.79) rotate(-53.61)"/><rect class="cls-3" x="-82.67" y="144.39" width="192.96" height="1.26" transform="translate(-48.98 3.25) rotate(-53.61)"/><rect class="cls-3" x="-79.63" y="144.41" width="192.96" height="1.26" transform="translate(-47.75 5.71) rotate(-53.61)"/><rect class="cls-3" x="-76.59" y="144.43" width="192.96" height="1.26" transform="translate(-46.53 8.16) rotate(-53.61)"/><rect class="cls-3" x="-73.54" y="144.45" width="192.96" height="1.26" transform="translate(-45.31 10.62) rotate(-53.61)"/><rect class="cls-3" x="-70.5" y="144.46" width="192.96" height="1.26" transform="translate(-44.08 13.08) rotate(-53.61)"/><rect class="cls-3" x="-67.46" y="144.48" width="192.96" height="1.26" transform="matrix(0.59, -0.81, 0.81, 0.59, -42.86, 15.53)"/><rect class="cls-3" x="-64.41" y="144.5" width="192.96" height="1.26" transform="translate(-41.63 17.99) rotate(-53.61)"/><rect class="cls-3" x="-61.37" y="144.51" width="192.96" height="1.26" transform="translate(-40.41 20.45) rotate(-53.61)"/><rect class="cls-3" x="-58.33" y="144.53" width="192.96" height="1.26" transform="translate(-39.18 22.9) rotate(-53.61)"/><rect class="cls-3" x="-55.28" y="144.55" width="192.96" height="1.26" transform="translate(-37.96 25.36) rotate(-53.61)"/><rect class="cls-3" x="-52.24" y="144.56" width="192.96" height="1.26" transform="translate(-36.74 27.82) rotate(-53.61)"/><rect class="cls-3" x="-49.2" y="144.58" width="192.96" height="1.26" transform="translate(-35.51 30.27) rotate(-53.61)"/><rect class="cls-3" x="-46.15" y="144.6" width="192.96" height="1.26" transform="matrix(0.59, -0.81, 0.81, 0.59, -34.29, 32.73)"/><rect class="cls-3" x="-43.11" y="144.61" width="192.96" height="1.26" transform="translate(-33.06 35.19) rotate(-53.61)"/><rect class="cls-3" x="-40.07" y="144.63" width="192.96" height="1.26" transform="matrix(0.59, -0.81, 0.81, 0.59, -31.84, 37.64)"/><rect class="cls-3" x="-37.02" y="144.65" width="192.96" height="1.26" transform="translate(-30.62 40.1) rotate(-53.61)"/><rect class="cls-3" x="-33.98" y="144.66" width="192.96" height="1.26" transform="translate(-29.39 42.56) rotate(-53.61)"/><rect class="cls-3" x="-30.94" y="144.68" width="192.96" height="1.26" transform="matrix(0.59, -0.81, 0.81, 0.59, -28.17, 45.01)"/><rect class="cls-3" x="-27.89" y="144.7" width="192.96" height="1.26" transform="translate(-26.94 47.47) rotate(-53.61)"/><rect class="cls-3" x="-24.85" y="144.71" width="192.96" height="1.26" transform="translate(-25.72 49.93) rotate(-53.61)"/><rect class="cls-3" x="-21.81" y="144.73" width="192.96" height="1.26" transform="translate(-24.49 52.39) rotate(-53.61)"/><rect class="cls-3" x="-18.76" y="144.75" width="192.96" height="1.26" transform="translate(-23.27 54.84) rotate(-53.61)"/><rect class="cls-3" x="-15.72" y="144.77" width="192.96" height="1.26" transform="translate(-22.05 57.3) rotate(-53.61)"/><rect class="cls-3" x="-12.68" y="144.78" width="192.96" height="1.26" transform="translate(-20.82 59.76) rotate(-53.61)"/><rect class="cls-3" x="-9.63" y="144.8" width="192.96" height="1.26" transform="translate(-19.6 62.21) rotate(-53.61)"/><rect class="cls-3" x="-6.59" y="144.82" width="192.96" height="1.26" transform="matrix(0.59, -0.81, 0.81, 0.59, -18.37, 64.67)"/><rect class="cls-3" x="-3.55" y="144.83" width="192.96" height="1.26" transform="translate(-17.15 67.13) rotate(-53.61)"/><rect class="cls-3" x="-0.5" y="144.85" width="192.96" height="1.26" transform="translate(-15.92 69.58) rotate(-53.61)"/><rect class="cls-3" x="2.54" y="144.87" width="192.96" height="1.26" transform="matrix(0.59, -0.81, 0.81, 0.59, -14.7, 72.04)"/><rect class="cls-3" x="5.58" y="144.88" width="192.96" height="1.26" transform="translate(-13.48 74.5) rotate(-53.61)"/><rect class="cls-3" x="8.63" y="144.9" width="192.96" height="1.26" transform="translate(-12.25 76.95) rotate(-53.61)"/><rect class="cls-3" x="11.67" y="144.92" width="192.96" height="1.26" transform="matrix(0.59, -0.81, 0.81, 0.59, -11.03, 79.41)"/><rect class="cls-3" x="14.71" y="144.93" width="192.96" height="1.26" transform="translate(-9.8 81.87) rotate(-53.61)"/><rect class="cls-3" x="17.76" y="144.95" width="192.96" height="1.26" transform="translate(-8.58 84.32) rotate(-53.61)"/><rect class="cls-3" x="20.8" y="144.97" width="192.96" height="1.26" transform="translate(-7.35 86.78) rotate(-53.61)"/><rect class="cls-3" x="23.84" y="144.98" width="192.96" height="1.26" transform="translate(-6.13 89.24) rotate(-53.61)"/><rect class="cls-3" x="26.89" y="145" width="192.96" height="1.26" transform="translate(-4.91 91.69) rotate(-53.61)"/><rect class="cls-3" x="29.93" y="145.02" width="192.96" height="1.26" transform="translate(-3.68 94.15) rotate(-53.61)"/><rect class="cls-3" x="32.97" y="145.03" width="192.96" height="1.26" transform="translate(-2.46 96.61) rotate(-53.61)"/><rect class="cls-3" x="36.02" y="145.05" width="192.96" height="1.26" transform="translate(-1.23 99.06) rotate(-53.61)"/><rect class="cls-3" x="39.06" y="145.07" width="192.96" height="1.26" transform="translate(-0.01 101.52) rotate(-53.61)"/><rect class="cls-3" x="42.1" y="145.08" width="192.96" height="1.26" transform="translate(1.22 103.98) rotate(-53.61)"/><rect class="cls-3" x="45.15" y="145.1" width="192.96" height="1.26" transform="translate(2.44 106.43) rotate(-53.61)"/><rect class="cls-3" x="48.19" y="145.12" width="192.96" height="1.26" transform="translate(3.66 108.89) rotate(-53.61)"/><rect class="cls-3" x="51.23" y="145.14" width="192.96" height="1.26" transform="translate(4.89 111.35) rotate(-53.61)"/><rect class="cls-3" x="54.28" y="145.15" width="192.96" height="1.26" transform="translate(6.11 113.8) rotate(-53.61)"/><rect class="cls-3" x="57.32" y="145.17" width="192.96" height="1.26" transform="translate(7.34 116.26) rotate(-53.61)"/><rect class="cls-3" x="60.36" y="145.19" width="192.96" height="1.26" transform="matrix(0.59, -0.81, 0.81, 0.59, 8.56, 118.72)"/><rect class="cls-3" x="63.41" y="145.2" width="192.96" height="1.26" transform="matrix(0.59, -0.81, 0.81, 0.59, 9.79, 121.17)"/><rect class="cls-3" x="66.45" y="145.22" width="192.96" height="1.26" transform="translate(11.01 123.63) rotate(-53.61)"/><rect class="cls-3" x="69.49" y="145.24" width="192.96" height="1.26" transform="translate(12.23 126.09) rotate(-53.61)"/><rect class="cls-3" x="72.53" y="145.25" width="192.96" height="1.26" transform="translate(13.46 128.54) rotate(-53.61)"/><rect class="cls-3" x="75.58" y="145.27" width="192.96" height="1.26" transform="matrix(0.59, -0.81, 0.81, 0.59, 14.68, 131)"/><rect class="cls-3" x="78.62" y="145.29" width="192.96" height="1.26" transform="translate(15.91 133.46) rotate(-53.61)"/><rect class="cls-3" x="81.66" y="145.3" width="192.96" height="1.26" transform="translate(17.13 135.91) rotate(-53.61)"/><rect class="cls-3" x="84.71" y="145.32" width="192.96" height="1.26" transform="translate(18.36 138.37) rotate(-53.61)"/><rect class="cls-3" x="87.75" y="145.34" width="192.96" height="1.26" transform="translate(19.58 140.83) rotate(-53.61)"/><rect class="cls-3" x="90.79" y="145.35" width="192.96" height="1.26" transform="matrix(0.59, -0.81, 0.81, 0.59, 20.8, 143.28)"/><rect class="cls-3" x="93.84" y="145.37" width="192.96" height="1.26" transform="matrix(0.59, -0.81, 0.81, 0.59, 22.03, 145.74)"/><rect class="cls-3" x="96.88" y="145.39" width="192.96" height="1.26" transform="translate(23.25 148.2) rotate(-53.61)"/><rect class="cls-3" x="99.92" y="145.4" width="192.96" height="1.26" transform="translate(24.48 150.65) rotate(-53.61)"/><rect class="cls-3" x="102.97" y="145.42" width="192.96" height="1.26" transform="translate(25.7 153.11) rotate(-53.61)"/><rect class="cls-3" x="106.01" y="145.44" width="192.96" height="1.26" transform="translate(26.92 155.57) rotate(-53.61)"/><rect class="cls-3" x="109.05" y="145.46" width="192.96" height="1.26" transform="matrix(0.59, -0.81, 0.81, 0.59, 28.15, 158.02)"/><rect class="cls-3" x="112.1" y="145.47" width="192.96" height="1.26" transform="translate(29.37 160.48) rotate(-53.61)"/><rect class="cls-3" x="115.14" y="145.49" width="192.96" height="1.26" transform="translate(30.6 162.94) rotate(-53.61)"/><rect class="cls-3" x="118.18" y="145.51" width="192.96" height="1.26" transform="translate(31.82 165.39) rotate(-53.61)"/><rect class="cls-3" x="121.23" y="145.52" width="192.96" height="1.26" transform="translate(33.05 167.85) rotate(-53.61)"/><rect class="cls-3" x="124.27" y="145.54" width="192.96" height="1.26" transform="translate(34.27 170.31) rotate(-53.61)"/><rect class="cls-3" x="127.31" y="145.56" width="192.96" height="1.26" transform="translate(35.49 172.76) rotate(-53.61)"/><rect class="cls-3" x="130.36" y="145.57" width="192.96" height="1.26" transform="translate(36.72 175.22) rotate(-53.61)"/><rect class="cls-3" x="133.4" y="145.59" width="192.96" height="1.26" transform="translate(37.94 177.68) rotate(-53.61)"/><rect class="cls-3" x="136.44" y="145.61" width="192.96" height="1.26" transform="translate(39.17 180.13) rotate(-53.61)"/><rect class="cls-3" x="139.49" y="145.62" width="192.96" height="1.26" transform="translate(40.39 182.59) rotate(-53.61)"/><rect class="cls-3" x="142.53" y="145.64" width="192.96" height="1.26" transform="translate(41.56 184.9) rotate(-53.58)"/><rect class="cls-3" x="145.57" y="145.66" width="192.96" height="1.26" transform="translate(42.78 187.35) rotate(-53.58)"/><rect class="cls-3" x="148.62" y="145.67" width="192.96" height="1.26" transform="translate(44 189.81) rotate(-53.58)"/><rect class="cls-3" x="151.66" y="145.69" width="192.96" height="1.26" transform="translate(45.22 192.26) rotate(-53.58)"/><rect class="cls-3" x="154.7" y="145.71" width="192.96" height="1.26" transform="translate(46.45 194.72) rotate(-53.58)"/><rect class="cls-3" x="157.75" y="145.73" width="192.96" height="1.26" transform="translate(47.67 197.17) rotate(-53.58)"/><rect class="cls-3" x="160.79" y="145.74" width="192.96" height="1.26" transform="translate(48.89 199.63) rotate(-53.58)"/><rect class="cls-3" x="163.83" y="145.76" width="192.96" height="1.26" transform="translate(50.11 202.09) rotate(-53.58)"/><rect class="cls-3" x="166.88" y="145.78" width="192.96" height="1.26" transform="translate(51.34 204.54) rotate(-53.58)"/><rect class="cls-3" x="169.92" y="145.79" width="192.96" height="1.26" transform="translate(52.56 207) rotate(-53.58)"/><rect class="cls-3" x="172.96" y="145.81" width="192.96" height="1.26" transform="translate(53.78 209.45) rotate(-53.58)"/><rect class="cls-3" x="176.01" y="145.83" width="192.96" height="1.26" transform="translate(55.01 211.91) rotate(-53.58)"/><rect class="cls-3" x="179.05" y="145.84" width="192.96" height="1.26" transform="translate(56.23 214.36) rotate(-53.58)"/><rect class="cls-3" x="182.09" y="145.86" width="192.96" height="1.26" transform="translate(57.45 216.82) rotate(-53.58)"/><rect class="cls-3" x="185.14" y="145.88" width="192.96" height="1.26" transform="translate(58.67 219.27) rotate(-53.58)"/><rect class="cls-3" x="188.18" y="145.89" width="192.96" height="1.26" transform="translate(59.9 221.73) rotate(-53.58)"/><rect class="cls-3" x="191.22" y="145.91" width="192.96" height="1.26" transform="translate(61.12 224.19) rotate(-53.58)"/><rect class="cls-3" x="194.27" y="145.93" width="192.96" height="1.26" transform="translate(62.34 226.64) rotate(-53.58)"/><rect class="cls-3" x="197.31" y="145.94" width="192.96" height="1.26" transform="translate(63.57 229.1) rotate(-53.58)"/><rect class="cls-3" x="200.35" y="145.96" width="192.96" height="1.26" transform="translate(64.79 231.55) rotate(-53.58)"/><rect class="cls-3" x="203.4" y="145.98" width="192.96" height="1.26" transform="translate(66.01 234.01) rotate(-53.58)"/><rect class="cls-3" x="206.44" y="145.99" width="192.96" height="1.26" transform="translate(67.23 236.46) rotate(-53.58)"/><rect class="cls-3" x="209.48" y="146.01" width="192.96" height="1.26" transform="translate(68.46 238.92) rotate(-53.58)"/><rect class="cls-3" x="212.53" y="146.03" width="192.96" height="1.26" transform="translate(69.68 241.38) rotate(-53.58)"/><rect class="cls-3" x="215.57" y="146.04" width="192.96" height="1.26" transform="translate(70.9 243.83) rotate(-53.58)"/><rect class="cls-3" x="218.61" y="146.06" width="192.96" height="1.26" transform="translate(72.13 246.29) rotate(-53.58)"/><rect class="cls-3" x="221.65" y="146.08" width="192.96" height="1.26" transform="translate(73.35 248.74) rotate(-53.58)"/><rect class="cls-3" x="224.7" y="146.1" width="192.96" height="1.26" transform="translate(74.57 251.2) rotate(-53.58)"/><rect class="cls-3" x="227.74" y="146.11" width="192.96" height="1.26" transform="translate(75.79 253.65) rotate(-53.58)"/><rect class="cls-3" x="230.78" y="146.13" width="192.96" height="1.26" transform="translate(77.02 256.11) rotate(-53.58)"/><rect class="cls-3" x="233.83" y="146.15" width="192.96" height="1.26" transform="translate(78.24 258.57) rotate(-53.58)"/><rect class="cls-3" x="236.87" y="146.16" width="192.96" height="1.26" transform="translate(79.46 261.02) rotate(-53.58)"/><rect class="cls-3" x="239.91" y="146.18" width="192.96" height="1.26" transform="translate(80.69 263.48) rotate(-53.58)"/><rect class="cls-3" x="242.96" y="146.2" width="192.96" height="1.26" transform="translate(81.91 265.93) rotate(-53.58)"/><rect class="cls-3" x="246" y="146.21" width="192.96" height="1.26" transform="translate(83.13 268.39) rotate(-53.58)"/><rect class="cls-3" x="249.04" y="146.23" width="192.96" height="1.26" transform="translate(84.35 270.84) rotate(-53.58)"/><rect class="cls-3" x="252.09" y="146.25" width="192.96" height="1.26" transform="translate(85.58 273.3) rotate(-53.58)"/><rect class="cls-3" x="255.13" y="146.26" width="192.96" height="1.26" transform="translate(86.8 275.75) rotate(-53.58)"/><rect class="cls-3" x="258.17" y="146.28" width="192.96" height="1.26" transform="translate(88.02 278.21) rotate(-53.58)"/><rect class="cls-3" x="261.22" y="146.3" width="192.96" height="1.26" transform="translate(89.25 280.67) rotate(-53.58)"/><rect class="cls-3" x="264.26" y="146.31" width="192.96" height="1.26" transform="translate(90.47 283.12) rotate(-53.58)"/><rect class="cls-3" x="267.3" y="146.33" width="192.96" height="1.26" transform="translate(91.69 285.58) rotate(-53.58)"/><rect class="cls-3" x="270.35" y="146.35" width="192.96" height="1.26" transform="translate(92.91 288.03) rotate(-53.58)"/><rect class="cls-3" x="273.39" y="146.36" width="192.96" height="1.26" transform="translate(94.14 290.49) rotate(-53.58)"/><rect class="cls-3" x="276.43" y="146.38" width="192.96" height="1.26" transform="translate(95.36 292.94) rotate(-53.58)"/><rect class="cls-3" x="279.48" y="146.4" width="192.96" height="1.26" transform="translate(96.58 295.4) rotate(-53.58)"/><rect class="cls-3" x="282.52" y="146.41" width="192.96" height="1.26" transform="translate(97.81 297.86) rotate(-53.58)"/></g><rect class="cls-4" x="78.6" y="58.63" width="7.19" height="61.86"/><polygon class="cls-4" points="142.19 106.57 138.46 100.47 108.34 58.63 102.61 58.63 102.61 120.49 109.8 120.49 109.8 71.91 112.16 76 143.64 120.49 149.46 120.49 149.46 58.63 142.19 58.63 142.19 106.57"/><path class="cls-4" d="M137.62,130.07q-6.19-4.59-16.65-4.59H104.14v61.86h7.19V164h8.73q10.37,0,17-5t6.73-14.6Q143.8,134.67,137.62,130.07Zm-5.73,24.56q-4.37,3.23-11.55,3.23h-9V131.57h9.73q7.55,0,11.46,3t3.91,10.14Q136.25,151.41,131.89,154.64Z" transform="translate(62.15 -66.85)"/><path class="cls-4" d="M191.93,153.54a17.23,17.23,0,0,0,3-10.05q0-9.28-6.19-13.65t-16.65-4.37H155.27v61.86h7.19V162h8.73a58.36,58.36,0,0,0,6.46-.36l14.19,25.74h7.92L184,159.68A18.1,18.1,0,0,0,191.93,153.54ZM171.46,156h-9V131.57h9.73q7.37,0,11.37,2.68t4,9.51q-.09,6.55-4.5,9.42T171.46,156Z" transform="translate(62.15 -66.85)"/><polygon class="cls-4" points="392.53 58.63 375.7 85.01 356.87 57.08 350.87 60.08 370.7 89.19 348.5 120.49 356.23 120.49 374.52 94.38 391.17 120.49 398.99 120.49 379.43 90.19 400.26 58.63 392.53 58.63"/><rect class="cls-4" x="409.63" y="58.63" width="7.19" height="61.86"/><path class="cls-4" d="M245.68,117.65a40.86,40.86,0,0,0-40.81,40.81,40.16,40.16,0,0,0,.73,7.66c0,.15.11.6.28,1.37a40.18,40.18,0,0,0,2.73,8c4.4,10.35,14.06,26.25,35.28,43.28a2.89,2.89,0,0,0,3.63,0c21.19-17,30.88-32.93,35.28-43.28a39.74,39.74,0,0,0,2.73-8c.17-.77.26-1.22.28-1.37a42,42,0,0,0,.73-7.66A40.92,40.92,0,0,0,245.68,117.65Zm34.4,47.46s0,.09,0,.13-.09.43-.19.92v0a33.88,33.88,0,0,1-2.37,7s0,.06,0,.09c-4,9.45-12.74,23.88-31.78,39.61-19-15.73-27.79-30.16-31.78-39.61,0,0,0-.06,0-.09a36.14,36.14,0,0,1-2.37-7v0c-.13-.49-.17-.81-.19-.92s0-.09,0-.15a35,35,0,1,1,68.81,0Z" transform="translate(62.15 -66.85)"/><path class="cls-4" d="M245.68,133a25.91,25.91,0,1,0,25.91,25.91A25.95,25.95,0,0,0,245.68,133Zm0,46.06a20.15,20.15,0,1,1,20.15-20.15A20.17,20.17,0,0,1,245.68,179.05Z" transform="translate(62.15 -66.85)"/><rect class="cls-5" x="78.6" y="58.63" width="7.19" height="61.86"/><polygon class="cls-5" points="142.19 106.57 138.46 100.47 108.34 58.63 102.61 58.63 102.61 120.49 109.8 120.49 109.8 71.91 112.16 76 143.64 120.49 149.46 120.49 149.46 58.63 142.19 58.63 142.19 106.57"/><path class="cls-5" d="M137.62,130.07q-6.19-4.59-16.65-4.59H104.14v61.86h7.19V164h8.73q10.37,0,17-5t6.73-14.6Q143.8,134.67,137.62,130.07Zm-5.73,24.56q-4.37,3.23-11.55,3.23h-9V131.57h9.73q7.55,0,11.46,3t3.91,10.14Q136.25,151.41,131.89,154.64Z" transform="translate(62.15 -66.85)"/><path class="cls-5" d="M191.93,153.54a17.23,17.23,0,0,0,3-10.05q0-9.28-6.19-13.65t-16.65-4.37H155.27v61.86h7.19V162h8.73a58.36,58.36,0,0,0,6.46-.36l14.19,25.74h7.92L184,159.68A18.1,18.1,0,0,0,191.93,153.54ZM171.46,156h-9V131.57h9.73q7.37,0,11.37,2.68t4,9.51q-.09,6.55-4.5,9.42T171.46,156Z" transform="translate(62.15 -66.85)"/><polygon class="cls-5" points="392.53 58.63 375.7 85.01 356.87 57.08 350.87 60.08 370.7 89.19 348.5 120.49 356.23 120.49 374.52 94.38 391.17 120.49 398.99 120.49 379.43 90.19 400.26 58.63 392.53 58.63"/><rect class="cls-5" x="409.63" y="58.63" width="7.19" height="61.86"/><path class="cls-5" d="M245.68,117.65a40.86,40.86,0,0,0-40.81,40.81,40.16,40.16,0,0,0,.73,7.66c0,.15.11.6.28,1.37a40.18,40.18,0,0,0,2.73,8c4.4,10.35,14.06,26.25,35.28,43.28a2.89,2.89,0,0,0,3.63,0c21.19-17,30.88-32.93,35.28-43.28a39.74,39.74,0,0,0,2.73-8c.17-.77.26-1.22.28-1.37a42,42,0,0,0,.73-7.66A40.92,40.92,0,0,0,245.68,117.65Zm34.4,47.46s0,.09,0,.13-.09.43-.19.92v0a33.88,33.88,0,0,1-2.37,7s0,.06,0,.09c-4,9.45-12.74,23.88-31.78,39.61-19-15.73-27.79-30.16-31.78-39.61,0,0,0-.06,0-.09a36.14,36.14,0,0,1-2.37-7v0c-.13-.49-.17-.81-.19-.92s0-.09,0-.15a35,35,0,1,1,68.81,0Z" transform="translate(62.15 -66.85)"/><path class="cls-5" d="M245.68,133a25.91,25.91,0,1,0,25.91,25.91A25.95,25.95,0,0,0,245.68,133Zm0,46.06a20.15,20.15,0,1,1,20.15-20.15A20.17,20.17,0,0,1,245.68,179.05Z" transform="translate(62.15 -66.85)"/></svg>